<svg data-v-fde0c5aa="" xmlns="http://www.w3.org/2000/svg" viewBox="0 0 300 300" class="iconLeftSlogan"><!----><defs data-v-fde0c5aa=""><!----></defs><rect data-v-fde0c5aa="" fill="transparent" x="0" y="0" width="300px" height="300px" class="logo-background-square"></rect><defs data-v-fde0c5aa=""><!----></defs><g data-v-fde0c5aa="" id="6c9cc0b9-678e-41ed-bf57-0ca04f3b5ba8" fill="#000000" transform="matrix(4.240559942055505,0,0,4.240559942055505,114.50637472908362,104.86696051609997)"><path d="M2.58 8.02L2.58 8.02L2.58 3.82L4.14 3.82L4.14 3.82Q5.08 3.82 5.47 4.23L5.47 4.23L5.47 4.23Q5.87 4.63 5.87 5.60L5.87 5.60L5.87 6.59L5.87 6.59Q5.87 7.36 5.46 7.76L5.46 7.76L5.46 7.76Q5.05 8.16 4.28 8.16L4.28 8.16L4.28 8.16Q4.05 8.16 3.83 8.15L3.83 8.15L3.83 8.15Q3.61 8.15 3.43 8.13L3.43 8.13L3.43 8.13Q3.25 8.12 3.03 8.09L3.03 8.09L3.03 8.09Q2.81 8.06 2.58 8.02ZM2.58 12.66L2.58 8.57L4.56 8.68L4.56 8.68Q5.80 8.75 6.45 8.18L6.45 8.18L6.45 8.18Q7.10 7.60 7.10 6.55L7.10 6.55L7.10 5.36L7.10 5.36Q7.10 4.30 6.46 3.80L6.46 3.80L6.46 3.80Q5.82 3.30 4.55 3.30L4.55 3.30L0.17 3.30L0.17 3.84L1.36 3.82L1.36 12.64L0.17 12.64L0.17 13.17L3.79 13.17L3.79 12.64L2.58 12.66ZM13.08 11.07L13.08 11.07L13.08 9.16L13.08 9.16Q13.08 8.15 12.54 7.56L12.54 7.56L12.54 7.56Q12.00 6.97 11.03 6.97L11.03 6.97L9.77 6.97L9.77 6.97Q8.85 6.97 8.29 7.56L8.29 7.56L8.29 7.56Q7.74 8.15 7.74 9.16L7.74 9.16L7.74 11.07L7.74 11.07Q7.74 12.08 8.29 12.67L8.29 12.67L8.29 12.67Q8.83 13.26 9.77 13.26L9.77 13.26L11.03 13.26L11.03 13.26Q11.97 13.26 12.52 12.67L12.52 12.67L12.52 12.67Q13.08 12.08 13.08 11.07ZM11.94 8.79L11.94 11.44L11.94 11.44Q11.94 12.15 11.70 12.45L11.70 12.45L11.70 12.45Q11.45 12.75 10.78 12.75L10.78 12.75L10.02 12.75L10.02 12.75Q9.38 12.75 9.13 12.45L9.13 12.45L9.13 12.45Q8.88 12.15 8.88 11.44L8.88 11.44L8.88 8.79L8.88 8.79Q8.88 8.08 9.13 7.78L9.13 7.78L9.13 7.78Q9.38 7.48 10.02 7.48L10.02 7.48L10.78 7.48L10.78 7.48Q11.45 7.48 11.70 7.78L11.70 7.78L11.70 7.78Q11.94 8.08 11.94 8.79L11.94 8.79ZM18.45 11.61L18.45 11.61L18.45 10.85L18.45 10.85Q18.45 10.57 18.38 10.34L18.38 10.34L18.38 10.34Q18.31 10.11 18.14 9.94L18.14 9.94L18.14 9.94Q17.98 9.77 17.69 9.67L17.69 9.67L17.69 9.67Q17.40 9.58 16.98 9.58L16.98 9.58L16.09 9.58L16.09 9.58Q15.74 9.58 15.52 9.53L15.52 9.53L15.52 9.53Q15.30 9.48 15.19 9.38L15.19 9.38L15.19 9.38Q15.08 9.28 15.04 9.16L15.04 9.16L15.04 9.16Q14.99 9.03 14.99 8.88L14.99 8.88L14.99 8.29L14.99 8.29Q14.99 7.91 15.21 7.69L15.21 7.69L15.21 7.69Q15.43 7.48 15.90 7.48L15.90 7.48L15.90 7.48Q16.74 7.48 17.16 7.69L17.16 7.69L17.16 7.69Q17.58 7.91 17.68 8.25L17.68 8.25L17.68 8.74L18.19 8.72L18.16 7.01L18.06 7.01L18.06 7.01Q18.06 7.17 17.99 7.20L17.99 7.20L17.99 7.20Q17.95 7.20 17.92 7.18L17.92 7.18L17.92 7.18Q17.56 7.11 16.98 7.04L16.98 7.04L16.98 7.04Q16.41 6.97 15.74 6.97L15.74 6.97L15.74 6.97Q15.06 6.97 14.71 7.31L14.71 7.31L14.71 7.31Q14.35 7.66 14.35 8.37L14.35 8.37L14.35 9.24L14.35 9.24Q14.35 9.95 14.73 10.23L14.73 10.23L14.73 10.23Q15.11 10.51 15.71 10.51L15.71 10.51L16.72 10.51L16.72 10.51Q17.32 10.51 17.51 10.75L17.51 10.75L17.51 10.75Q17.70 10.99 17.70 11.37L17.70 11.37L17.70 11.76L17.70 11.76Q17.70 12.75 16.76 12.75L16.76 12.75L16.76 12.75Q16.35 12.75 16.00 12.70L16.00 12.70L16.00 12.70Q15.65 12.64 15.39 12.52L15.39 12.52L15.39 12.52Q15.12 12.39 14.95 12.20L14.95 12.20L14.95 12.20Q14.78 12.01 14.74 11.76L14.74 11.76L14.74 11.27L14.21 11.28L14.22 13.22L14.32 13.22L14.32 13.22Q14.32 13.02 14.39 12.99L14.39 12.99L14.45 12.98L14.45 12.98Q14.49 12.98 14.52 13.01L14.52 13.01L14.52 13.01Q15.01 13.13 15.55 13.20L15.55 13.20L15.55 13.20Q16.10 13.27 16.73 13.27L16.73 13.27L16.73 13.27Q17.57 13.27 18.01 12.84L18.01 12.84L18.01 12.84Q18.45 12.42 18.45 11.61ZM21.18 12.14L21.18 12.14L21.18 7.63L22.61 7.63L22.61 7.13L21.18 7.13L21.18 5.08L20.64 5.08L20.64 5.08Q20.57 5.84 20.34 6.35L20.34 6.35L20.34 6.35Q20.10 6.86 19.60 7.13L19.60 7.13L19.12 7.13L19.12 7.63L20.13 7.63L20.13 12.15L20.13 12.15Q20.13 13.26 21.45 13.26L21.45 13.26L21.45 13.26Q22.04 13.26 22.31 13.09L22.31 13.09L22.31 13.09Q22.58 12.92 22.72 12.73L22.72 12.73L22.72 12.43L22.62 12.31L22.62 12.31Q22.60 12.43 22.36 12.59L22.36 12.59L22.36 12.59Q22.13 12.75 21.81 12.75L21.81 12.75L21.81 12.75Q21.46 12.75 21.32 12.62L21.32 12.62L21.32 12.62Q21.18 12.49 21.18 12.14ZM30.39 12.64L29.27 12.66L29.27 3.84L30.39 3.84L30.39 3.30L26.92 3.30L26.92 3.84L28.04 3.82L28.04 12.64L26.92 12.64L26.92 13.17L30.39 13.17L30.39 12.64ZM32.77 12.14L32.77 12.14L32.77 7.63L34.20 7.63L34.20 7.13L32.77 7.13L32.77 5.08L32.23 5.08L32.23 5.08Q32.16 5.84 31.93 6.35L31.93 6.35L31.93 6.35Q31.70 6.86 31.19 7.13L31.19 7.13L30.72 7.13L30.72 7.63L31.72 7.63L31.72 12.15L31.72 12.15Q31.72 13.26 33.04 13.26L33.04 13.26L33.04 13.26Q33.63 13.26 33.90 13.09L33.90 13.09L33.90 13.09Q34.17 12.92 34.31 12.73L34.31 12.73L34.31 12.43L34.22 12.31L34.22 12.31Q34.19 12.43 33.96 12.59L33.96 12.59L33.96 12.59Q33.73 12.75 33.40 12.75L33.40 12.75L33.40 12.75Q33.05 12.75 32.91 12.62L32.91 12.62L32.91 12.62Q32.77 12.49 32.77 12.14Z"></path></g><defs data-v-fde0c5aa=""><linearGradient data-v-fde0c5aa="" gradientTransform="rotate(25)" id="97a4571a-bd2d-4bc1-a2ce-c9d7e3ee5521" x1="0%" y1="0%" x2="100%" y2="0%"><stop data-v-fde0c5aa="" offset="0%" stop-color="#41E296" stop-opacity="1"></stop><stop data-v-fde0c5aa="" offset="100%" stop-color="#00C4EE" stop-opacity="1"></stop></linearGradient></defs><g data-v-fde0c5aa="" id="ece6bdc5-6518-44e9-8f7b-2f4693dbb9fa" stroke="none" fill="url(#97a4571a-bd2d-4bc1-a2ce-c9d7e3ee5521)" transform="matrix(1.5979885740558721,0,0,1.5979885740558721,-13.428750168061434,67.10993565647746)"><path d="M55.876 23.608h-5.928c-2.481 0-4.5 2.019-4.5 4.5s2.019 4.5 4.5 4.5a1.5 1.5 0 1 0 0-3c-.827 0-1.5-.673-1.5-1.5s.673-1.5 1.5-1.5h5.928c7.444 0 13.5 6.056 13.5 13.5v2.766c0 7.444-6.056 13.5-13.5 13.5a1.5 1.5 0 1 0 0 3c9.098 0 16.5-7.402 16.5-16.5v-2.766c0-9.098-7.402-16.5-16.5-16.5z"></path><path d="M49.948 56.374c-.827 0-1.5-.673-1.5-1.5s.673-1.5 1.5-1.5h5.928c5.79 0 10.5-4.71 10.5-10.5v-2.766c0-5.79-4.71-10.5-10.5-10.5a1.5 1.5 0 1 0 0 3c4.136 0 7.5 3.364 7.5 7.5v2.766c0 4.136-3.364 7.5-7.5 7.5h-5.928c-2.481 0-4.5 2.019-4.5 4.5s2.019 4.5 4.5 4.5a1.5 1.5 0 1 0 0-3zM37.935 23.608c-2.378 0-4.311 1.859-4.47 4.197-.02.098-.03.199-.03.303v47.527c0 .104.011.205.03.303.159 2.338 2.092 4.197 4.47 4.197 2.481 0 4.5-2.019 4.5-4.5a1.5 1.5 0 1 0-3 0c0 .827-.673 1.5-1.5 1.5s-1.5-.673-1.5-1.5V28.108c0-.827.673-1.5 1.5-1.5s1.5.673 1.5 1.5a1.5 1.5 0 1 0 3 0c0-2.481-2.019-4.5-4.5-4.5z"></path><path d="M40.935 32.608a1.5 1.5 0 0 0-1.5 1.5v35.527a1.5 1.5 0 1 0 3 0V34.108a1.5 1.5 0 0 0-1.5-1.5z"></path></g><defs data-v-fde0c5aa=""><!----></defs><g data-v-fde0c5aa="" id="0aee3834-45de-4de2-8072-7c484b2b689d" fill="#000000" transform="matrix(0.594891229647034,0,0,0.594891229647034,115.23321890272257,169.889920351797)"><path d="M4.93 7.81L8.81 2.21L7.53 2.21L4.40 6.72L1.26 2.21L-0.01 2.21L3.88 7.81L3.88 11.48L4.93 11.48ZM20.55 2.10C17.74 2.10 15.85 4.21 15.85 6.85C15.85 9.48 17.74 11.59 20.55 11.59C23.37 11.59 25.26 9.48 25.26 6.85C25.26 4.21 23.37 2.10 20.55 2.10ZM20.55 10.57C18.30 10.57 16.90 8.93 16.90 6.85C16.90 4.76 18.30 3.12 20.55 3.12C22.81 3.12 24.21 4.76 24.21 6.85C24.21 8.93 22.81 10.57 20.55 10.57ZM40.66 2.21L40.66 7.52C40.66 9.67 39.23 10.57 37.76 10.57C36.29 10.57 34.87 9.67 34.87 7.52L34.87 2.21L33.82 2.21L33.82 7.49C33.82 9.95 35.45 11.59 37.76 11.59C40.08 11.59 41.71 9.94 41.71 7.49L41.71 2.21ZM51.91 7.92L55.13 7.92L57.37 11.48L58.62 11.48L56.18 7.74C57.22 7.50 58.42 6.90 58.42 5.11C58.42 3.35 57.20 2.21 55.30 2.21L50.86 2.21L50.86 11.48L51.91 11.48ZM51.91 3.21L55.17 3.21C56.49 3.21 57.37 3.93 57.37 5.11C57.37 6.55 56.11 6.93 55.12 6.93L51.91 6.93ZM81.12 2.21L77.21 2.21L77.21 11.48L81.12 11.48C83.33 11.48 85.37 9.74 85.37 6.85C85.37 3.95 83.33 2.21 81.12 2.21ZM81.07 10.49L78.26 10.49L78.26 3.21L81.07 3.21C83.05 3.21 84.32 4.86 84.32 6.85C84.32 8.83 83.05 10.49 81.07 10.49ZM98.04 2.21L96.73 2.21L92.79 11.48L93.95 11.48L95.09 8.79L99.68 8.79L100.81 11.48L101.98 11.48ZM95.49 7.83L97.38 3.30L99.27 7.83ZM115.91 2.21L108.39 2.21L108.39 3.22L111.62 3.22L111.62 11.48L112.67 11.48L112.67 3.22L115.91 3.22ZM127.57 2.21L126.25 2.21L122.32 11.48L123.48 11.48L124.61 8.79L129.21 8.79L130.34 11.48L131.50 11.48ZM125.02 7.83L126.91 3.30L128.80 7.83ZM150.71 2.21L149.66 2.21L149.66 11.48L150.71 11.48ZM160.59 4.65C160.59 4.03 160.96 3.08 163.06 3.08C164.75 3.08 165.54 3.82 165.65 4.75L166.73 4.75C166.64 3.36 165.52 2.10 163.06 2.10C160.73 2.10 159.57 3.15 159.57 4.66C159.57 7.84 165.91 6.69 165.91 8.96C165.91 10.05 164.93 10.60 163.37 10.60C161.76 10.60 160.45 10.05 160.38 8.71L159.29 8.71C159.43 10.37 160.55 11.59 163.30 11.59C165.58 11.59 166.96 10.64 166.96 8.92C166.96 5.68 160.59 6.80 160.59 4.65ZM189.69 2.10C186.87 2.10 184.98 4.21 184.98 6.85C184.98 9.48 186.87 11.59 189.69 11.59C192.50 11.59 194.39 9.48 194.39 6.85C194.39 4.21 192.50 2.10 189.69 2.10ZM189.69 10.57C187.43 10.57 186.03 8.93 186.03 6.85C186.03 4.76 187.43 3.12 189.69 3.12C191.94 3.12 193.34 4.76 193.34 6.85C193.34 8.93 191.94 10.57 189.69 10.57ZM209.79 2.21L209.79 7.52C209.79 9.67 208.36 10.57 206.89 10.57C205.42 10.57 204.01 9.67 204.01 7.52L204.01 2.21L202.96 2.21L202.96 7.49C202.96 9.95 204.58 11.59 206.89 11.59C209.22 11.59 210.84 9.94 210.84 7.49L210.84 2.21ZM221.05 7.92L224.27 7.92L226.51 11.48L227.75 11.48L225.32 7.74C226.35 7.50 227.56 6.90 227.56 5.11C227.56 3.35 226.34 2.21 224.43 2.21L220.00 2.21L220.00 11.48L221.05 11.48ZM221.05 3.21L224.31 3.21C225.62 3.21 226.51 3.93 226.51 5.11C226.51 6.55 225.25 6.93 224.25 6.93L221.05 6.93ZM236.98 4.65C236.98 4.03 237.34 3.08 239.44 3.08C241.14 3.08 241.92 3.82 242.03 4.75L243.11 4.75C243.03 3.36 241.91 2.10 239.44 2.10C237.12 2.10 235.96 3.15 235.96 4.66C235.96 7.84 242.30 6.69 242.30 8.96C242.30 10.05 241.32 10.60 239.75 10.60C238.14 10.60 236.84 10.05 236.77 8.71L235.68 8.71C235.82 10.37 236.94 11.59 239.68 11.59C241.96 11.59 243.35 10.64 243.35 8.92C243.35 5.68 236.98 6.80 236.98 4.65Z"></path></g></svg>