<svg data-v-fde0c5aa="" xmlns="http://www.w3.org/2000/svg" viewBox="0 0 300 300" class="font"><!----><defs data-v-fde0c5aa=""><!----></defs><rect data-v-fde0c5aa="" fill="transparent" x="0" y="0" width="300px" height="300px" class="logo-background-square"></rect><defs data-v-fde0c5aa=""><linearGradient data-v-fde0c5aa="" gradientTransform="rotate(25)" id="783a8e68-b957-47ff-a1fa-7a0946603367" x1="0%" y1="0%" x2="100%" y2="0%"><stop data-v-fde0c5aa="" offset="0%" stop-color="#41E296" stop-opacity="1"></stop><stop data-v-fde0c5aa="" offset="100%" stop-color="#00C4EE" stop-opacity="1"></stop></linearGradient></defs><g data-v-fde0c5aa="" id="812216df-3361-411f-aa2a-00cfd7499a72" fill="url(#783a8e68-b957-47ff-a1fa-7a0946603367)" transform="matrix(6.4440532908911985,0,0,6.4440532908911985,38.90451083300175,96.61101793186889)"><path d="M2.58 8.02L2.58 8.02L2.58 3.82L4.14 3.82L4.14 3.82Q5.08 3.82 5.47 4.23L5.47 4.23L5.47 4.23Q5.87 4.63 5.87 5.60L5.87 5.60L5.87 6.59L5.87 6.59Q5.87 7.36 5.46 7.76L5.46 7.76L5.46 7.76Q5.05 8.16 4.28 8.16L4.28 8.16L4.28 8.16Q4.05 8.16 3.83 8.15L3.83 8.15L3.83 8.15Q3.61 8.15 3.43 8.13L3.43 8.13L3.43 8.13Q3.25 8.12 3.03 8.09L3.03 8.09L3.03 8.09Q2.81 8.06 2.58 8.02ZM2.58 12.66L2.58 8.57L4.56 8.68L4.56 8.68Q5.80 8.75 6.45 8.18L6.45 8.18L6.45 8.18Q7.10 7.60 7.10 6.55L7.10 6.55L7.10 5.36L7.10 5.36Q7.10 4.30 6.46 3.80L6.46 3.80L6.46 3.80Q5.82 3.30 4.55 3.30L4.55 3.30L0.17 3.30L0.17 3.84L1.36 3.82L1.36 12.64L0.17 12.64L0.17 13.17L3.79 13.17L3.79 12.64L2.58 12.66ZM13.08 11.07L13.08 11.07L13.08 9.16L13.08 9.16Q13.08 8.15 12.54 7.56L12.54 7.56L12.54 7.56Q12.00 6.97 11.03 6.97L11.03 6.97L9.77 6.97L9.77 6.97Q8.85 6.97 8.29 7.56L8.29 7.56L8.29 7.56Q7.74 8.15 7.74 9.16L7.74 9.16L7.74 11.07L7.74 11.07Q7.74 12.08 8.29 12.67L8.29 12.67L8.29 12.67Q8.83 13.26 9.77 13.26L9.77 13.26L11.03 13.26L11.03 13.26Q11.97 13.26 12.52 12.67L12.52 12.67L12.52 12.67Q13.08 12.08 13.08 11.07ZM11.94 8.79L11.94 11.44L11.94 11.44Q11.94 12.15 11.70 12.45L11.70 12.45L11.70 12.45Q11.45 12.75 10.78 12.75L10.78 12.75L10.02 12.75L10.02 12.75Q9.38 12.75 9.13 12.45L9.13 12.45L9.13 12.45Q8.88 12.15 8.88 11.44L8.88 11.44L8.88 8.79L8.88 8.79Q8.88 8.08 9.13 7.78L9.13 7.78L9.13 7.78Q9.38 7.48 10.02 7.48L10.02 7.48L10.78 7.48L10.78 7.48Q11.45 7.48 11.70 7.78L11.70 7.78L11.70 7.78Q11.94 8.08 11.94 8.79L11.94 8.79ZM18.45 11.61L18.45 11.61L18.45 10.85L18.45 10.85Q18.45 10.57 18.38 10.34L18.38 10.34L18.38 10.34Q18.31 10.11 18.14 9.94L18.14 9.94L18.14 9.94Q17.98 9.77 17.69 9.67L17.69 9.67L17.69 9.67Q17.40 9.58 16.98 9.58L16.98 9.58L16.09 9.58L16.09 9.58Q15.74 9.58 15.52 9.53L15.52 9.53L15.52 9.53Q15.30 9.48 15.19 9.38L15.19 9.38L15.19 9.38Q15.08 9.28 15.04 9.16L15.04 9.16L15.04 9.16Q14.99 9.03 14.99 8.88L14.99 8.88L14.99 8.29L14.99 8.29Q14.99 7.91 15.21 7.69L15.21 7.69L15.21 7.69Q15.43 7.48 15.90 7.48L15.90 7.48L15.90 7.48Q16.74 7.48 17.16 7.69L17.16 7.69L17.16 7.69Q17.58 7.91 17.68 8.25L17.68 8.25L17.68 8.74L18.19 8.72L18.16 7.01L18.06 7.01L18.06 7.01Q18.06 7.17 17.99 7.20L17.99 7.20L17.99 7.20Q17.95 7.20 17.92 7.18L17.92 7.18L17.92 7.18Q17.56 7.11 16.98 7.04L16.98 7.04L16.98 7.04Q16.41 6.97 15.74 6.97L15.74 6.97L15.74 6.97Q15.06 6.97 14.71 7.31L14.71 7.31L14.71 7.31Q14.35 7.66 14.35 8.37L14.35 8.37L14.35 9.24L14.35 9.24Q14.35 9.95 14.73 10.23L14.73 10.23L14.73 10.23Q15.11 10.51 15.71 10.51L15.71 10.51L16.72 10.51L16.72 10.51Q17.32 10.51 17.51 10.75L17.51 10.75L17.51 10.75Q17.70 10.99 17.70 11.37L17.70 11.37L17.70 11.76L17.70 11.76Q17.70 12.75 16.76 12.75L16.76 12.75L16.76 12.75Q16.35 12.75 16.00 12.70L16.00 12.70L16.00 12.70Q15.65 12.64 15.39 12.52L15.39 12.52L15.39 12.52Q15.12 12.39 14.95 12.20L14.95 12.20L14.95 12.20Q14.78 12.01 14.74 11.76L14.74 11.76L14.74 11.27L14.21 11.28L14.22 13.22L14.32 13.22L14.32 13.22Q14.32 13.02 14.39 12.99L14.39 12.99L14.45 12.98L14.45 12.98Q14.49 12.98 14.52 13.01L14.52 13.01L14.52 13.01Q15.01 13.13 15.55 13.20L15.55 13.20L15.55 13.20Q16.10 13.27 16.73 13.27L16.73 13.27L16.73 13.27Q17.57 13.27 18.01 12.84L18.01 12.84L18.01 12.84Q18.45 12.42 18.45 11.61ZM21.18 12.14L21.18 12.14L21.18 7.63L22.61 7.63L22.61 7.13L21.18 7.13L21.18 5.08L20.64 5.08L20.64 5.08Q20.57 5.84 20.34 6.35L20.34 6.35L20.34 6.35Q20.10 6.86 19.60 7.13L19.60 7.13L19.12 7.13L19.12 7.63L20.13 7.63L20.13 12.15L20.13 12.15Q20.13 13.26 21.45 13.26L21.45 13.26L21.45 13.26Q22.04 13.26 22.31 13.09L22.31 13.09L22.31 13.09Q22.58 12.92 22.72 12.73L22.72 12.73L22.72 12.43L22.62 12.31L22.62 12.31Q22.60 12.43 22.36 12.59L22.36 12.59L22.36 12.59Q22.13 12.75 21.81 12.75L21.81 12.75L21.81 12.75Q21.46 12.75 21.32 12.62L21.32 12.62L21.32 12.62Q21.18 12.49 21.18 12.14ZM30.39 12.64L29.27 12.66L29.27 3.84L30.39 3.84L30.39 3.30L26.92 3.30L26.92 3.84L28.04 3.82L28.04 12.64L26.92 12.64L26.92 13.17L30.39 13.17L30.39 12.64ZM32.77 12.14L32.77 12.14L32.77 7.63L34.20 7.63L34.20 7.13L32.77 7.13L32.77 5.08L32.23 5.08L32.23 5.08Q32.16 5.84 31.93 6.35L31.93 6.35L31.93 6.35Q31.70 6.86 31.19 7.13L31.19 7.13L30.72 7.13L30.72 7.63L31.72 7.63L31.72 12.15L31.72 12.15Q31.72 13.26 33.04 13.26L33.04 13.26L33.04 13.26Q33.63 13.26 33.90 13.09L33.90 13.09L33.90 13.09Q34.17 12.92 34.31 12.73L34.31 12.73L34.31 12.43L34.22 12.31L34.22 12.31Q34.19 12.43 33.96 12.59L33.96 12.59L33.96 12.59Q33.73 12.75 33.40 12.75L33.40 12.75L33.40 12.75Q33.05 12.75 32.91 12.62L32.91 12.62L32.91 12.62Q32.77 12.49 32.77 12.14Z"></path></g><!----><!----></svg>